<?xml version="1.0" standalone="no"?>
<!DOCTYPE svg PUBLIC "-//W3C//DTD SVG 20010904//EN"
 "http://www.w3.org/TR/2001/REC-SVG-20010904/DTD/svg10.dtd">
<svg version="1.0" xmlns="http://www.w3.org/2000/svg"
 width="2000.000000pt" height="2000.000000pt" viewBox="0 0 2000.000000 2000.000000"
 preserveAspectRatio="xMidYMid meet">
<metadata>
Created by potrace 1.14, written by Peter Selinger 2001-2017
</metadata>
<g transform="translate(0.000000,2000.000000) scale(0.100000,-0.100000)"
fill="#000000" stroke="none">
<path d="M3649 19996 c-2 -2 -44 -7 -94 -10 -49 -4 -103 -9 -120 -11 -16 -2
-52 -7 -80 -10 -27 -3 -59 -8 -70 -10 -11 -3 -36 -7 -55 -10 -47 -6 -92 -15
-110 -20 -8 -2 -31 -7 -50 -10 -19 -3 -53 -11 -75 -16 -22 -6 -47 -12 -55 -14
-251 -51 -769 -260 -987 -398 -24 -15 -46 -27 -49 -27 -4 0 -72 -44 -153 -97
-154 -102 -277 -194 -401 -302 -92 -79 -360 -348 -415 -415 -22 -27 -59 -71
-82 -99 -87 -102 -262 -359 -343 -502 -96 -169 -205 -404 -278 -600 -46 -123
-129 -411 -146 -508 -3 -15 -7 -35 -10 -45 -3 -9 -7 -33 -10 -52 -3 -19 -10
-62 -16 -95 -6 -33 -13 -82 -16 -110 -3 -27 -7 -61 -9 -75 -3 -14 -8 -68 -12
-120 -11 -133 -10 -12785 1 -12890 4 -47 10 -98 11 -115 8 -70 35 -240 60
-370 13 -69 77 -302 110 -401 105 -315 254 -626 432 -899 61 -94 219 -310 253
-346 8 -9 33 -38 55 -65 68 -84 331 -345 433 -431 306 -256 565 -418 967 -603
168 -78 546 -199 730 -235 75 -14 201 -38 215 -40 8 -1 42 -5 75 -9 33 -4 70
-9 83 -11 12 -2 64 -7 115 -12 118 -10 12786 -11 12892 0 44 4 96 10 115 12
19 3 55 7 80 10 25 3 56 7 70 9 14 3 41 7 60 10 51 8 93 16 110 21 8 2 31 7
50 10 19 3 53 11 75 16 22 6 48 13 57 14 62 12 362 106 433 136 17 7 32 13 35
14 110 37 370 163 535 258 105 61 321 201 335 217 3 3 21 17 40 30 30 20 107
82 225 180 68 57 366 361 431 440 121 148 220 281 260 351 6 10 18 27 27 37
10 10 17 21 17 24 0 4 23 44 52 90 55 90 176 323 221 428 16 36 35 81 44 100
99 224 212 655 248 945 4 28 8 61 11 75 17 102 19 940 19 6565 0 5671 -2 6464
-20 6554 -2 13 -7 47 -10 75 -3 28 -7 62 -9 76 -3 14 -7 41 -10 60 -32 210
-126 549 -216 775 -111 278 -263 559 -436 805 -143 205 -238 316 -443 520 -86
86 -197 189 -246 230 -405 335 -901 601 -1375 738 -124 36 -267 73 -295 76
-11 2 -29 6 -40 9 -11 4 -34 9 -50 11 -27 3 -135 21 -192 31 -12 2 -57 7 -100
10 -43 4 -87 10 -98 14 -21 6 -12799 14 -12806 7z"/>
</g>
</svg>
